<svg width="40" height="40" viewBox="0 0 40 40" fill="none" xmlns="http://www.w3.org/2000/svg" xmlns:xlink="http://www.w3.org/1999/xlink">
<path d="M36.586,39.414C37.367,40.195 38.633,40.195 39.414,39.414C40.195,38.633 40.195,37.367 39.414,36.586L36.586,39.414ZM29.314,29.314L27.9,27.9L29.314,29.314ZM18,2L18,0L18,2ZM6.686,6.686L8.1,8.1L6.686,6.686ZM39.414,36.586L30.728,27.9L27.9,30.728L36.586,39.414L39.414,36.586ZM30.728,30.728C32.4,29.057 33.726,27.072 34.63,24.888L30.935,23.358C30.231,25.056 29.2,26.6 27.9,27.9L30.728,30.728ZM34.63,24.888C35.535,22.705 36,20.364 36,18L32,18C32,19.838 31.638,21.659 30.935,23.358L34.63,24.888ZM36,18C36,15.636 35.535,13.295 34.63,11.111L30.935,12.642C31.638,14.341 32,16.161 32,18L36,18ZM34.63,11.111C33.726,8.928 32.4,6.943 30.728,5.272L27.9,8.1C29.2,9.4 30.231,10.944 30.935,12.642L34.63,11.111ZM30.728,5.272C29.057,3.6 27.072,2.274 24.888,1.37L23.358,5.065C25.056,5.769 26.6,6.8 27.9,8.1L30.728,5.272ZM24.888,1.37C22.705,0.465 20.364,0 18,0L18,4C19.838,4 21.659,4.362 23.358,5.065L24.888,1.37ZM18,0C15.636,0 13.295,0.465 11.111,1.37L12.642,5.065C14.341,4.362 16.161,4 18,4L18,0ZM11.111,1.37C8.928,2.274 6.943,3.6 5.272,5.272L8.1,8.1C9.4,6.8 10.944,5.769 12.642,5.065L11.111,1.37ZM5.272,5.272C1.896,8.647 0,13.226 0,18L4,18C4,14.287 5.475,10.726 8.1,8.1L5.272,5.272ZM0,18C0,22.774 1.896,27.352 5.272,30.728L8.1,27.9C5.475,25.274 4,21.713 4,18L0,18ZM5.272,30.728C8.647,34.104 13.226,36 18,36L18,32C14.287,32 10.726,30.525 8.1,27.9L5.272,30.728ZM18,36C22.774,36 27.352,34.104 30.728,30.728L27.9,27.9C25.274,30.525 21.713,32 18,32L18,36Z" fill="#000000"/>
</svg>
